<?xml version="1.0" encoding="UTF-8"?>
<!DOCTYPE svg PUBLIC "-//W3C//DTD SVG 1.1//EN" "http://www.w3.org/Graphics/SVG/1.1/DTD/svg11.dtd">
<!-- Creator: CorelDRAW 2026 -->
<svg xmlns="http://www.w3.org/2000/svg" xml:space="preserve" width="43.8mm" height="38.2418mm" version="1.1" style="shape-rendering:geometricPrecision; text-rendering:geometricPrecision; image-rendering:optimizeQuality; fill-rule:evenodd; clip-rule:evenodd"
viewBox="0 0 239.24 208.88"
 xmlns:xlink="http://www.w3.org/1999/xlink"
 xmlns:xodm="http://www.corel.com/coreldraw/odm/2003">
 <defs>
  <style type="text/css">
   <![CDATA[
    .fil0 {fill:white}
   ]]>
  </style>
 </defs>
 <g id="Camada_x0020_1">
  <metadata id="CorelCorpID_0Corel-Layer"/>
  <path class="fil0" d="M134.73 19.68c-24.26,19.31 -38.65,-3.1 -72.01,6.26 -18.4,5.16 -49.61,26.94 -55.5,37.64 41.81,-11.61 59.88,16.31 31.33,42.26 -22.36,20.32 -38.55,31.29 -38.55,71.22 0,12.65 4.88,21.39 7.51,31.82l1.7 -3.31c0.99,-2.77 0.78,-1.42 1.53,-5.05 3.96,-19.03 3.01,-31.39 22.66,-53.65 4.2,-4.76 16.92,-13.92 24.48,-17.93 11.35,-6.01 20.94,-7.71 35.41,-8.86 9.98,-18.76 17.08,-30.16 39.35,-35.8l0.71 -18.33 23.7 0.03c0.83,22.37 -1.03,15.49 13.61,23.2 15.23,8.01 23.33,18.33 28.06,37.51l17.91 -0.01 0 25.33 -17.9 0.22c-2.87,11.21 -8.75,22.67 -14.86,27.83 15.62,-1.96 31.99,-16.62 39.49,-26.27 19.54,-25.14 19.68,-85.35 7.85,-107.48 -6.06,6.04 -11.1,18.13 -25.86,10.26 -19.36,-10.33 -25.42,-61.39 -73.75,-56.2 3.9,7.63 4.24,9.01 3.12,19.31zm0.97 87.77c-43.04,15.5 -20.01,77.99 20.61,63.99 38.3,-13.21 20.91,-78.95 -20.61,-63.99zm9.39 19.94c6.61,0 11.97,5.36 11.97,11.97 0,6.61 -5.36,11.97 -11.97,11.97 -6.61,0 -11.97,-5.36 -11.97,-11.97 0,-6.61 5.36,-11.97 11.97,-11.97z"/>
 </g>
</svg>
