<?xml version="1.0" encoding="UTF-8"?>
<!DOCTYPE svg PUBLIC "-//W3C//DTD SVG 1.1//EN" "http://www.w3.org/Graphics/SVG/1.1/DTD/svg11.dtd">
<!-- Creator: CorelDRAW 2026 -->
<svg xmlns="http://www.w3.org/2000/svg" xml:space="preserve" width="30mm" height="30mm" version="1.1" style="shape-rendering:geometricPrecision; text-rendering:geometricPrecision; image-rendering:optimizeQuality; fill-rule:evenodd; clip-rule:evenodd"
viewBox="0 0 834.8 834.8"
 xmlns:xlink="http://www.w3.org/1999/xlink"
 xmlns:xodm="http://www.corel.com/coreldraw/odm/2003">
 <defs>
  <style type="text/css">
   <![CDATA[
    .fil0 {fill:white}
   ]]>
  </style>
 </defs>
 <g id="Camada_x0020_1">
  <metadata id="CorelCorpID_0Corel-Layer"/>
  <g id="_2167785398576">
   <path class="fil0" d="M-0 396.76l0 41.46c0,57.67 22.46,124.18 42.17,163.44 44.73,89.1 120.56,163.44 214.16,200.97 52.4,21.01 101.5,32.16 175.57,32.16 -1.71,-7.34 -12.78,-24.45 -17.34,-31.38l-280.83 -460.73 332.5 0c-19.39,-36.56 -71.21,-117.41 -95.87,-158.53l-71.6 -117.85c-2.75,-4.61 -22.86,-39.07 -25.88,-39.07 -18.43,0 -86.09,41.84 -104.81,55.88 -30.63,22.96 -58.08,48.97 -81.34,79.29 -47.68,62.18 -86.72,153.41 -86.72,234.36z"/>
   <path class="fil0" d="M706.57 477.88l-332.5 0 185.78 304.99c4.65,7.35 8.99,13.72 13,21.28 25.13,-5.84 82.39,-43.08 100.96,-57.92 33.26,-26.58 54.5,-48.11 79.49,-81.13 106.36,-140.53 107.6,-335.49 9.67,-481.42l-20.81 -27.91c-27.73,-32.53 -42.72,-47.73 -76.63,-73.18 -55.83,-41.91 -149.34,-80.4 -219.18,-80.59 -9.7,-0.03 -14.9,-2.43 -21.93,-1.93 -6.59,0.48 -9.77,-2.28 -0.82,11.94 6.86,10.91 12.82,21.11 19.04,31.55 6.13,10.28 12.13,19.65 18.52,30.2l150.88 247.86c24.02,40.16 75.02,119.46 94.54,156.26z"/>
  </g>
 </g>
</svg>
