<?xml version="1.0" encoding="UTF-8"?>
<!DOCTYPE svg PUBLIC "-//W3C//DTD SVG 1.1//EN" "http://www.w3.org/Graphics/SVG/1.1/DTD/svg11.dtd">
<!-- Creator: CorelDRAW 2026 -->
<svg xmlns="http://www.w3.org/2000/svg" xml:space="preserve" width="43.5805mm" height="35.022mm" version="1.1" style="shape-rendering:geometricPrecision; text-rendering:geometricPrecision; image-rendering:optimizeQuality; fill-rule:evenodd; clip-rule:evenodd"
viewBox="0 0 268.14 215.48"
 xmlns:xlink="http://www.w3.org/1999/xlink"
 xmlns:xodm="http://www.corel.com/coreldraw/odm/2003">
 <defs>
  <style type="text/css">
   <![CDATA[
    .fil0 {fill:white}
   ]]>
  </style>
 </defs>
 <g id="Camada_x0020_1">
  <metadata id="CorelCorpID_0Corel-Layer"/>
  <path class="fil0" d="M113.52 0.03c15.96,36.88 -26.1,30.72 -51.81,30.98 -2.92,4.11 -9.37,13.09 -11.84,18.61 24.39,0.1 60.52,-4.82 68.33,14.84l-103.65 -0.01c-6.13,3.5 -12.17,13.06 -14.55,18.08 26.93,3.07 68.53,0.64 97.03,0.64 34.39,0 60.02,2.86 64.21,-31.7 12.28,5.33 46.6,45.55 57.08,55.13 -3.21,6.34 -46.01,52.57 -57.04,57.34 -4.02,-34.57 -29.34,-31.88 -64.25,-31.88 -32.24,0 -64.49,0 -96.73,0 2.88,7.17 7.27,14.83 14.25,18.67l103.98 -0.03c-7.77,15.02 -22.74,15.16 -43.22,15.16 1.86,5.24 7.92,13.23 11.47,18.3 23.49,1.36 36.18,5.43 26.68,31.31 65.34,0 43.67,-0.53 91.3,-42.33 9.42,-8.27 60.19,-59.04 63.37,-66.74 -10.72,-10.93 -20.85,-21.16 -32.08,-32.42 -10.93,-10.96 -20.74,-22.73 -32.44,-32.7 -45.11,-38.43 -22.52,-41.67 -90.09,-41.26z"/>
 </g>
</svg>
