<?xml version="1.0" encoding="UTF-8"?>
<!DOCTYPE svg PUBLIC "-//W3C//DTD SVG 1.1//EN" "http://www.w3.org/Graphics/SVG/1.1/DTD/svg11.dtd">
<!-- Creator: CorelDRAW 2026 -->
<svg xmlns="http://www.w3.org/2000/svg" xml:space="preserve" width="34.4395mm" height="28.4939mm" version="1.1" style="shape-rendering:geometricPrecision; text-rendering:geometricPrecision; image-rendering:optimizeQuality; fill-rule:evenodd; clip-rule:evenodd"
viewBox="0 0 232.24 192.14"
 xmlns:xlink="http://www.w3.org/1999/xlink"
 xmlns:xodm="http://www.corel.com/coreldraw/odm/2003">
 <defs>
  <style type="text/css">
   <![CDATA[
    .fil0 {fill:#FEFEFE}
   ]]>
  </style>
 </defs>
 <g id="Camada_x0020_1">
  <metadata id="CorelCorpID_0Corel-Layer"/>
  <path class="fil0" d="M74.76 97.1c26.84,-6.93 28.98,-17.61 41.35,-38.4 12.38,20.78 14.51,31.47 41.35,38.4l-15.47 7.63c-17.69,9.18 -20.63,26.01 -25.89,34.81 -13.24,-22.17 -4.47,-24.17 -34.34,-38.45 -0.56,-0.27 -1.26,-0.61 -1.77,-0.86l-5.25 -3.14zm41.35 -61.12c-18.01,-11.69 -34.94,-45.81 -76.22,-33.23 -25.64,7.81 -50.27,36.68 -35.39,73.49 6.04,14.95 96.16,104.07 111.61,115.91 15.46,-11.85 105.56,-100.96 111.61,-115.91 14.89,-36.8 -9.75,-65.67 -35.4,-73.49 -41.25,-12.57 -58.2,21.54 -76.22,33.23z"/>
 </g>
</svg>
